<svg width="262" height="168" viewBox="0 0 262 168" fill="none" xmlns="http://www.w3.org/2000/svg">
<path d="M261.778 0.148193H0.112305V167.893H261.778V0.148193Z" fill="#E6E6E6"/>
<path d="M254.295 21.1877H7.59375V157.969H254.295V21.1877Z" fill="white"/>
<path d="M261.666 0H0V11.1273H261.666V0Z" fill="#2D9CDB"/>
<path d="M8.26153 7.75093C9.39944 7.75093 10.3219 6.82758 10.3219 5.68857C10.3219 4.54957 9.39944 3.62622 8.26153 3.62622C7.12363 3.62622 6.20117 4.54957 6.20117 5.68857C6.20117 6.82758 7.12363 7.75093 8.26153 7.75093Z" fill="white"/>
<path d="M16.0818 7.75093C17.2198 7.75093 18.1422 6.82758 18.1422 5.68857C18.1422 4.54957 17.2198 3.62622 16.0818 3.62622C14.9439 3.62622 14.0215 4.54957 14.0215 5.68857C14.0215 6.82758 14.9439 7.75093 16.0818 7.75093Z" fill="white"/>
<path d="M23.9022 7.75093C25.0401 7.75093 25.9625 6.82758 25.9625 5.68857C25.9625 4.54957 25.0401 3.62622 23.9022 3.62622C22.7643 3.62622 21.8418 4.54957 21.8418 5.68857C21.8418 6.82758 22.7643 7.75093 23.9022 7.75093Z" fill="white"/>
<path d="M93.3994 35.3799H30.0088V143.777H93.3994V35.3799Z" fill="#E6E6E6"/>
<path d="M157.169 35.3799H104.344V65.2174H157.169V35.3799Z" fill="#2D9CDB"/>
<path d="M157.169 73.5269H104.344V105.63H157.169V73.5269Z" fill="#E6E6E6"/>
<path d="M157.169 113.939H104.344V143.777H157.169V113.939Z" fill="#E6E6E6"/>
<path d="M231.879 35.3799H168.488V82.6187H231.879V35.3799Z" fill="#E6E6E6"/>
<path d="M231.879 96.5378H168.488V143.777H231.879V96.5378Z" fill="#2D9CDB"/>
</svg>
