<svg width="40" height="40" viewBox="0 0 40 40" fill="none" xmlns="http://www.w3.org/2000/svg">
<path d="M5.32368 21.9921C3.92595 19.6358 3.43645 16.8504 3.9471 14.1587C4.45776 11.4671 5.93344 9.0545 8.09705 7.37392C10.2607 5.69333 12.9634 4.86038 15.6976 5.03149C18.4319 5.20259 21.0097 6.36598 22.9469 8.30318C24.8841 10.2404 26.0475 12.8182 26.2186 15.5524C26.3897 18.2867 25.5568 20.9894 23.8762 23.153C22.1957 25.3166 19.783 26.7923 17.0914 27.303C14.3998 27.8137 11.6144 27.3242 9.25811 25.9265L9.25813 25.9263L5.3726 27.0365C5.21184 27.0824 5.04173 27.0845 4.87988 27.0426C4.71804 27.0007 4.57035 26.9162 4.45213 26.798C4.33391 26.6798 4.24946 26.5321 4.20752 26.3702C4.16558 26.2084 4.16769 26.0383 4.21362 25.8775L5.32377 21.992L5.32368 21.9921Z" stroke="white" stroke-width="2" stroke-linecap="round" stroke-linejoin="round"/>
<path d="M14.3843 27.4833C14.9373 29.0533 15.8317 30.4811 17.0029 31.6639C18.1741 32.8466 19.5931 33.755 21.1576 34.3234C22.7221 34.8918 24.3932 35.1062 26.0505 34.9511C27.7078 34.796 29.3101 34.2753 30.742 33.4264L30.7419 33.4263L34.6275 34.5365C34.7882 34.5824 34.9584 34.5845 35.1202 34.5426C35.282 34.5006 35.4297 34.4162 35.5479 34.298C35.6662 34.1797 35.7506 34.0321 35.7926 33.8702C35.8345 33.7084 35.8324 33.5382 35.7865 33.3775L34.6763 29.492L34.6764 29.492C35.6628 27.8285 36.2038 25.9388 36.2472 24.0054C36.2906 22.0719 35.835 20.1598 34.9243 18.4537C34.0137 16.7476 32.6786 15.3049 31.048 14.265C29.4175 13.225 27.5464 12.6229 25.6153 12.5166" stroke="white" stroke-width="2" stroke-linecap="round" stroke-linejoin="round"/>
</svg>
