<svg width="16" height="16" viewBox="0 0 16 16" fill="none" xmlns="http://www.w3.org/2000/svg">
<path d="M6.74462 11.9913H1.92188" stroke="#9E9E9E" stroke-width="1.5" stroke-linecap="round" stroke-linejoin="round"/>
<path fill-rule="evenodd" clip-rule="evenodd" d="M14.0783 11.9913C14.0783 13.0517 13.2187 13.9113 12.1583 13.9113C11.0979 13.9113 10.2383 13.0517 10.2383 11.9913C10.2383 10.9301 11.0979 10.0713 12.1583 10.0713C13.2187 10.0713 14.0783 10.9301 14.0783 11.9913Z" stroke="#9E9E9E" stroke-width="1.5" stroke-linecap="round" stroke-linejoin="round"/>
<path d="M9.25586 4.17487H14.0794" stroke="#9E9E9E" stroke-width="1.5" stroke-linecap="round" stroke-linejoin="round"/>
<path fill-rule="evenodd" clip-rule="evenodd" d="M1.92188 4.17488C1.92188 5.23606 2.78148 6.09488 3.84188 6.09488C4.90227 6.09488 5.76188 5.23606 5.76188 4.17488C5.76188 3.11449 4.90227 2.25488 3.84188 2.25488C2.78148 2.25488 1.92188 3.11449 1.92188 4.17488Z" stroke="#9E9E9E" stroke-width="1.5" stroke-linecap="round" stroke-linejoin="round"/>
</svg>
