<svg width="32" height="32" viewBox="0 0 32 32" fill="none" xmlns="http://www.w3.org/2000/svg">
<rect width="32" height="32" rx="2" fill="#F3F9FE"/>
<path fill-rule="evenodd" clip-rule="evenodd" d="M23 8.5H9C7.61929 8.5 6.5 9.61929 6.5 11V21C6.5 22.3807 7.61929 23.5 9 23.5H23C24.3807 23.5 25.5 22.3807 25.5 21V11C25.5 9.61929 24.3807 8.5 23 8.5ZM9 7C6.79086 7 5 8.79086 5 11V21C5 23.2091 6.79086 25 9 25H23C25.2091 25 27 23.2091 27 21V11C27 8.79086 25.2091 7 23 7H9ZM8 11.25C8 10.8358 8.33579 10.5 8.75 10.5H10.25C10.6642 10.5 11 10.8358 11 11.25C11 11.6642 10.6642 12 10.25 12H8.75C8.33579 12 8 11.6642 8 11.25ZM13.0801 10.5C12.6659 10.5 12.3301 10.8358 12.3301 11.25C12.3301 11.6642 12.6659 12 13.0801 12H14.5801C14.9943 12 15.3301 11.6642 15.3301 11.25C15.3301 10.8358 14.9943 10.5 14.5801 10.5H13.0801ZM16.6602 11.25C16.6602 10.8358 16.9959 10.5 17.4102 10.5H18.9102C19.3244 10.5 19.6602 10.8358 19.6602 11.25C19.6602 11.6642 19.3244 12 18.9102 12H17.4102C16.9959 12 16.6602 11.6642 16.6602 11.25ZM21.7402 10.5C21.326 10.5 20.9902 10.8358 20.9902 11.25C20.9902 11.6642 21.326 12 21.7402 12H23.2402C23.6544 12 23.9902 11.6642 23.9902 11.25C23.9902 10.8358 23.6544 10.5 23.2402 10.5H21.7402ZM8 21.25C8 20.8358 8.33579 20.5 8.75 20.5H10.25C10.6642 20.5 11 20.8358 11 21.25C11 21.6642 10.6642 22 10.25 22H8.75C8.33579 22 8 21.6642 8 21.25ZM13.0801 20.5C12.6659 20.5 12.3301 20.8358 12.3301 21.25C12.3301 21.6642 12.6659 22 13.0801 22H14.5801C14.9943 22 15.3301 21.6642 15.3301 21.25C15.3301 20.8358 14.9943 20.5 14.5801 20.5H13.0801ZM16.6602 21.25C16.6602 20.8358 16.9959 20.5 17.4102 20.5H18.9102C19.3244 20.5 19.6602 20.8358 19.6602 21.25C19.6602 21.6642 19.3244 22 18.9102 22H17.4102C16.9959 22 16.6602 21.6642 16.6602 21.25ZM21.7402 20.5C21.326 20.5 20.9902 20.8358 20.9902 21.25C20.9902 21.6642 21.326 22 21.7402 22H23.2402C23.6544 22 23.9902 21.6642 23.9902 21.25C23.9902 20.8358 23.6544 20.5 23.2402 20.5H21.7402Z" fill="#70A8DD"/>
</svg>
