<svg width="20" height="20" viewBox="0 0 20 20" fill="none" xmlns="http://www.w3.org/2000/svg">
<path d="M16.2495 2.5H14.3745V1.875C14.3745 1.70924 14.3087 1.55027 14.1915 1.43306C14.0742 1.31585 13.9153 1.25 13.7495 1.25C13.5838 1.25 13.4248 1.31585 13.3076 1.43306C13.1904 1.55027 13.1245 1.70924 13.1245 1.875V2.5H6.87451V1.875C6.87451 1.70924 6.80866 1.55027 6.69145 1.43306C6.57424 1.31585 6.41527 1.25 6.24951 1.25C6.08375 1.25 5.92478 1.31585 5.80757 1.43306C5.69036 1.55027 5.62451 1.70924 5.62451 1.875V2.5H3.74951C3.41809 2.50033 3.10034 2.63213 2.86599 2.86648C2.63164 3.10083 2.49984 3.41858 2.49951 3.75V16.25C2.49984 16.5814 2.63164 16.8992 2.86599 17.1335C3.10034 17.3679 3.41809 17.4997 3.74951 17.5H16.2495C16.5809 17.4997 16.8987 17.3679 17.133 17.1335C17.3674 16.8992 17.4992 16.5814 17.4995 16.25V3.75C17.4992 3.41858 17.3674 3.10083 17.133 2.86648C16.8987 2.63213 16.5809 2.50033 16.2495 2.5ZM8.12497 14.6875C7.87883 14.6882 7.635 14.64 7.40757 14.5459C7.18014 14.4518 6.97361 14.3135 6.79993 14.1391C6.68266 14.022 6.61671 13.863 6.61662 13.6973C6.61652 13.5315 6.68228 13.3725 6.79942 13.2552C6.91656 13.1379 7.07549 13.072 7.24125 13.0719C7.40702 13.0718 7.56603 13.1376 7.6833 13.2547C7.75601 13.3273 7.84551 13.3809 7.94386 13.4107C8.04222 13.4405 8.1464 13.4455 8.24718 13.4254C8.34797 13.4053 8.44224 13.3607 8.52165 13.2955C8.60106 13.2302 8.66317 13.1464 8.70247 13.0515C8.74176 12.9565 8.75704 12.8534 8.74694 12.7511C8.73685 12.6488 8.70169 12.5506 8.64458 12.4652C8.58748 12.3797 8.51018 12.3097 8.41955 12.2613C8.32891 12.2128 8.22773 12.1875 8.12497 12.1875H8.12459C8.10513 12.1875 8.08568 12.1864 8.06626 12.1845C8.06004 12.184 8.05398 12.183 8.04784 12.1823C8.03483 12.1806 8.02186 12.1787 8.00893 12.1763C8.00172 12.175 7.99459 12.1734 7.98745 12.1718C7.9757 12.1692 7.96399 12.1661 7.95236 12.1628C7.94526 12.1608 7.93817 12.1588 7.93119 12.1565C7.91944 12.1527 7.9078 12.1483 7.89624 12.1437C7.88995 12.1412 7.88358 12.139 7.8774 12.1363C7.86393 12.1305 7.8507 12.1239 7.8375 12.1171C7.83368 12.1151 7.82968 12.1134 7.8259 12.1114C7.80942 12.1023 7.79325 12.0925 7.77738 12.0819C7.77204 12.0783 7.76708 12.0743 7.76185 12.0705C7.7527 12.064 7.74343 12.0577 7.73454 12.0506C7.73339 12.0496 7.7324 12.0486 7.73126 12.0477C7.72184 12.04 7.71299 12.0317 7.70402 12.0235C7.6975 12.0176 7.69063 12.0119 7.68441 12.0057C7.67838 11.9997 7.67293 11.9932 7.66713 11.9869C7.5915 11.9053 7.53891 11.8051 7.51473 11.6965C7.51431 11.6945 7.51363 11.6926 7.51321 11.6906C7.51103 11.6801 7.50974 11.6692 7.5081 11.6585C7.50661 11.6488 7.5047 11.6392 7.50367 11.6294C7.50279 11.6214 7.50268 11.6132 7.50211 11.605C7.50123 11.5922 7.50028 11.5795 7.5002 11.5666C7.50016 11.5652 7.49997 11.5639 7.49997 11.5625C7.49997 11.556 7.50073 11.5497 7.50096 11.5433C7.50134 11.5303 7.50172 11.5174 7.50291 11.5045C7.50371 11.4957 7.50508 11.4872 7.50627 11.4786C7.50783 11.4669 7.50936 11.4553 7.51157 11.4438C7.51337 11.4345 7.51569 11.4254 7.51786 11.4163C7.52042 11.4056 7.52294 11.395 7.52607 11.3844C7.52889 11.375 7.53221 11.3658 7.53545 11.3565C7.53892 11.3466 7.54232 11.3367 7.54628 11.3269C7.55017 11.3173 7.5546 11.3081 7.55895 11.2988C7.56322 11.2897 7.56734 11.2805 7.57207 11.2715C7.57719 11.2618 7.58291 11.2524 7.58851 11.243C7.59336 11.2349 7.59801 11.2267 7.60324 11.2188C7.60988 11.2088 7.61709 11.1992 7.62426 11.1896C7.6286 11.1838 7.63234 11.1777 7.63692 11.172L8.07458 10.625H7.18747C7.02171 10.625 6.86274 10.5592 6.74553 10.4419C6.62832 10.3247 6.56247 10.1658 6.56247 10C6.56247 9.83424 6.62832 9.67527 6.74553 9.55806C6.86274 9.44085 7.02171 9.375 7.18747 9.375H9.37497C9.4927 9.375 9.60804 9.40825 9.7077 9.47093C9.80737 9.53361 9.8873 9.62316 9.9383 9.72927C9.9893 9.83538 10.0093 9.95374 9.99597 10.0707C9.98266 10.1877 9.93657 10.2985 9.86302 10.3905L9.17012 11.2566C9.50379 11.4805 9.75665 11.8058 9.89142 12.1844C10.0262 12.563 10.0357 12.9748 9.91862 13.3593C9.80152 13.7437 9.56397 14.0803 9.24103 14.3194C8.91808 14.5586 8.52683 14.6876 8.12497 14.6875ZM13.125 14.0625C13.125 14.2283 13.0591 14.3872 12.9419 14.5044C12.8247 14.6217 12.6657 14.6875 12.5 14.6875C12.3342 14.6875 12.1752 14.6217 12.058 14.5044C11.9408 14.3872 11.875 14.2283 11.875 14.0625V11.25L11.625 11.4375C11.4923 11.537 11.3256 11.5797 11.1615 11.5562C10.9975 11.5328 10.8494 11.4451 10.7499 11.3125C10.6505 11.1799 10.6078 11.0132 10.6312 10.8491C10.6547 10.685 10.7424 10.5369 10.875 10.4375L12.125 9.49997C12.2178 9.43034 12.3283 9.38794 12.4439 9.37753C12.5595 9.36711 12.6757 9.38909 12.7795 9.441C12.8833 9.49291 12.9706 9.5727 13.0316 9.67143C13.0926 9.77016 13.125 9.88393 13.125 10V14.0625ZM16.2495 6.25H3.74951V3.75H5.62451V4.375C5.62451 4.54076 5.69036 4.69973 5.80757 4.81694C5.92478 4.93415 6.08375 5 6.24951 5C6.41527 5 6.57424 4.93415 6.69145 4.81694C6.80866 4.69973 6.87451 4.54076 6.87451 4.375V3.75H13.1245V4.375C13.1245 4.54076 13.1904 4.69973 13.3076 4.81694C13.4248 4.93415 13.5838 5 13.7495 5C13.9153 5 14.0742 4.93415 14.1915 4.81694C14.3087 4.69973 14.3745 4.54076 14.3745 4.375V3.75H16.2495V6.25Z" fill="#E0E0E0"/>
</svg>
