<svg width="79" height="142" viewBox="0 0 79 142" fill="none" xmlns="http://www.w3.org/2000/svg">
<g opacity="0.7">
<path d="M21.3707 6.21865C24.8574 0.298242 31.7555 0.0223329 31.7555 0.0223329C31.7555 0.0223329 38.4773 -0.841478 42.7893 8.17537C46.8084 16.5798 52.3554 24.6945 43.6823 26.6619L42.1157 21.7619L41.1455 27.0267C39.9107 27.1159 38.6718 27.1372 37.4346 27.0904C28.1465 26.7891 19.301 27.1786 19.5858 23.8292C19.9644 19.3767 18.0158 11.9153 21.3707 6.21865Z" fill="#2F2E41"/>
<path d="M54.4351 37.829L57.485 45.5943L72.7344 59.7745C72.7344 59.7745 81.884 66.5269 77.8175 68.5527C73.751 70.5784 70.0234 61.125 70.0234 61.125L53.7574 51.3339L50.3686 40.1924L54.4351 37.829Z" fill="#FFB8B8"/>
<path d="M49.3516 123.923L46.3017 131.688H41.8963L45.6239 122.572L49.3516 123.923Z" fill="#FFB8B8"/>
<path d="M36.1367 127.299L33.0868 135.064H28.6815L32.4091 125.949L36.1367 127.299Z" fill="#FFB8B8"/>
<path d="M36.4757 128.649L30.7148 127.299L38.1701 97.2505L35.6947 74.1299L35.6285 74.1234C35.6285 74.1234 31.3926 57.7487 34.7813 53.3596C38.1701 48.9705 55.1139 50.6587 55.1139 50.6587C55.1139 50.6587 61.5525 57.0735 61.2136 71.5912C60.8748 86.109 61.2136 98.601 58.8415 104.341C56.4694 110.08 49.6919 125.273 49.6919 125.273L44.2699 124.598L50.0307 99.6139L50.9518 77.8956C50.2188 86.5989 48.7434 103.102 47.9975 104.341C46.9809 106.029 36.4757 128.649 36.4757 128.649Z" fill="#2F2E41"/>
<path d="M19.1913 44.9191L16.8191 53.3596L6.31398 72.2665C6.31398 72.2665 -2.83566 80.3694 0.891969 81.3823C4.6196 82.3951 10.3805 73.9546 10.3805 73.9546L22.2411 57.4111L25.291 45.2567L19.1913 44.9191Z" fill="#FFB8B8"/>
<path d="M31.3914 20.9479C26.7125 20.9479 22.9195 17.1689 22.9195 12.5073C22.9195 7.84574 26.7125 4.06677 31.3914 4.06677C36.0703 4.06677 39.8633 7.84574 39.8633 12.5073C39.8633 17.1689 36.0703 20.9479 31.3914 20.9479Z" fill="#FFB8B8"/>
<path d="M35.7967 16.8964L37.83 23.3112L41.2188 30.7389L28.6803 25.6746C28.6803 25.6746 29.3581 20.2726 28.6803 18.9222L35.7967 16.8964Z" fill="#FFB8B8"/>
<path d="M21.2256 30.4012L29.0198 23.9864L37.8306 27.7002L37.4854 22.222L46.8862 25.2133L48.3357 25.6745L50.369 36.1408C50.369 36.1408 51.7245 37.1536 53.08 42.8932C53.8626 46.2661 54.9984 49.5477 56.4687 52.6843C56.4688 52.6843 41.8971 46.9447 34.7807 54.71C34.7807 54.71 33.7641 54.0348 34.1029 53.0219C34.4418 52.009 31.0531 46.9447 31.0531 46.9447C31.0531 46.9447 31.0531 47.9576 29.6975 45.9318C28.342 43.9061 27.3254 43.5685 27.3254 43.5685L21.2256 30.4012Z" fill="#FF6584"/>
<path d="M46.3015 26.6875L47.7817 25.4987C47.7817 25.4987 49.0125 24.9994 50.0291 26.6875C51.0458 28.3756 56.1289 38.8419 56.1289 38.8419L50.0291 41.8805L46.3015 26.6875Z" fill="#FF6584"/>
<path d="M25.9697 30.0637L21.2254 30.4013C21.2254 30.4013 18.5144 31.7518 18.5144 33.7776C18.5144 35.8033 17.8366 46.6072 17.8366 46.6072L25.2919 48.9706L28.3418 39.5171L25.9697 30.0637Z" fill="#FF6584"/>
<path d="M47.2825 130.506L53.0434 132.87C53.0434 132.87 59.8209 133.207 58.8043 136.583C57.7877 139.96 47.6214 137.596 47.6214 137.596C47.6214 137.596 38.4717 137.934 38.4717 135.571C38.4717 133.207 39.8272 130.506 41.1827 130.506H47.2825Z" fill="#2F2E41"/>
<path d="M34.4036 133.545L40.1645 135.908C40.1645 135.908 46.942 136.246 45.9254 139.622C44.9088 142.998 34.7425 140.635 34.7425 140.635C34.7425 140.635 25.5928 140.973 25.5928 138.609C25.5928 136.246 26.9483 133.545 28.3038 133.545H34.4036Z" fill="#2F2E41"/>
<path d="M22.9127 5.64794L29.7278 2.06036L39.1387 3.52801L41.0859 12.1701L36.239 11.9831L34.8848 8.80775V11.9308L32.6482 11.8443L31.3504 6.78944L30.5391 12.1701L22.588 12.0071L22.9127 5.64794Z" fill="#2F2E41"/>
</g>
</svg>
