<svg width="24" height="24" viewBox="0 0 24 24" fill="none" xmlns="http://www.w3.org/2000/svg">
<path d="M11.7472 23.3418C18.0602 23.3418 23.178 18.2992 23.178 12.0789C23.178 5.85859 18.0602 0.81604 11.7472 0.81604C5.43414 0.81604 0.316406 5.85859 0.316406 12.0789C0.316406 18.2992 5.43414 23.3418 11.7472 23.3418Z" fill="#040404"/>
<path d="M11.7472 23.3418C18.0602 23.3418 23.178 18.2992 23.178 12.0789C23.178 5.85859 18.0602 0.81604 11.7472 0.81604C5.43414 0.81604 0.316406 5.85859 0.316406 12.0789C0.316406 18.2992 5.43414 23.3418 11.7472 23.3418Z" fill="#040404"/>
<path d="M11.7479 6.2651C13.6697 6.2651 13.8973 6.27227 14.6563 6.30648C15.358 6.33801 15.7391 6.45365 15.9927 6.55059C16.3285 6.67924 16.5683 6.83291 16.8203 7.08119C17.0721 7.32931 17.2281 7.56558 17.3587 7.89646C17.4572 8.14641 17.5744 8.52184 17.6066 9.21329C17.6411 9.96115 17.6484 10.1854 17.6484 12.0789C17.6484 13.9726 17.6411 14.1967 17.6066 14.9445C17.5746 15.636 17.4572 16.0114 17.3587 16.2613C17.2281 16.5924 17.0723 16.8285 16.8203 17.0768C16.5683 17.3251 16.3287 17.4786 15.9927 17.6074C15.7391 17.7045 15.358 17.8198 14.6563 17.8515C13.8974 17.8857 13.6698 17.8929 11.7479 17.8929C9.82604 17.8929 9.59844 17.8857 8.8396 17.8515C8.13784 17.82 7.75681 17.7045 7.50314 17.6074C7.16733 17.4787 6.92753 17.3251 6.67555 17.0768C6.42373 16.8287 6.26777 16.5926 6.1372 16.2613C6.03864 16.0114 5.92146 15.636 5.88945 14.9445C5.85491 14.1968 5.84745 13.9726 5.84745 12.0789C5.84745 10.1854 5.85474 9.96115 5.88945 9.21346C5.92146 8.52201 6.03864 8.14658 6.1372 7.89663C6.26777 7.56575 6.42373 7.32948 6.67555 7.08136C6.92737 6.83325 7.16716 6.67957 7.50314 6.55076C7.75681 6.45365 8.13784 6.33818 8.8396 6.30664C9.59844 6.27244 9.82621 6.2651 11.7479 6.2651ZM11.7479 4.98747C9.79336 4.98747 9.54814 4.99565 8.78067 5.03019C8.01456 5.06473 7.49145 5.18453 7.03354 5.3599C6.56039 5.5411 6.15888 5.78355 5.75889 6.17783C5.35889 6.57211 5.11267 6.96757 4.92876 7.43376C4.75078 7.88495 4.62902 8.40037 4.59413 9.15523C4.55908 9.91159 4.55078 10.153 4.55078 12.0789C4.55078 14.0048 4.55908 14.2462 4.59413 15.0026C4.62902 15.7573 4.75078 16.2729 4.92876 16.7239C5.11267 17.1902 5.35873 17.5857 5.75889 17.9798C6.15905 18.3741 6.56039 18.6165 7.03354 18.7977C7.49145 18.9731 8.01456 19.0931 8.78067 19.1276C9.54831 19.162 9.79336 19.1702 11.7479 19.1702C13.7025 19.1702 13.9476 19.162 14.7152 19.1276C15.4813 19.0931 16.0044 18.9731 16.4622 18.7977C16.9355 18.6165 17.3368 18.3741 17.737 17.9798C18.137 17.5857 18.383 17.1902 18.5669 16.7239C18.7449 16.2729 18.8667 15.7573 18.9016 15.0026C18.9366 14.2462 18.9449 14.0048 18.9449 12.0789C18.9449 10.153 18.9366 9.91143 18.9016 9.15523C18.8667 8.40037 18.7449 7.88495 18.5669 7.43376C18.383 6.96757 18.137 6.57195 17.737 6.17783C17.3368 5.78355 16.9355 5.5411 16.4622 5.3599C16.0044 5.18453 15.4813 5.06473 14.7152 5.03019C13.9476 4.99548 13.7025 4.98747 11.7479 4.98747Z" fill="white"/>
<path d="M11.7485 8.43724C9.7074 8.43724 8.05273 10.0676 8.05273 12.0787C8.05273 14.09 9.7074 15.7202 11.7485 15.7202C13.7896 15.7202 15.4443 14.0899 15.4443 12.0787C15.4443 10.0676 13.7896 8.43724 11.7485 8.43724ZM11.7485 14.4428C10.4236 14.4428 9.34941 13.3844 9.34941 12.0789C9.34941 10.7734 10.4234 9.71503 11.7485 9.71503C13.0736 9.71503 14.1476 10.7734 14.1476 12.0789C14.1476 13.3844 13.0735 14.4428 11.7485 14.4428Z" fill="white"/>
<path d="M15.5902 9.14439C16.0672 9.14439 16.4539 8.7634 16.4539 8.29342C16.4539 7.82344 16.0672 7.44244 15.5902 7.44244C15.1132 7.44244 14.7266 7.82344 14.7266 8.29342C14.7266 8.7634 15.1132 9.14439 15.5902 9.14439Z" fill="white"/>
</svg>
