<svg width="49" height="142" viewBox="0 0 49 142" fill="none" xmlns="http://www.w3.org/2000/svg">
<g opacity="0.7">
<path d="M0 140.865H48.1053" stroke="#3F3D56" stroke-miterlimit="10"/>
<path d="M29.2176 19.75C29.2176 19.75 26.5155 18.9543 25.9359 19.8202C25.3564 20.686 26.7261 26.963 26.7261 26.963L32.6801 27.3234L30.6023 22.0974L29.2176 19.75Z" fill="#2F2E41"/>
<path d="M8.38951 71.2961C8.38951 71.2961 13.8071 83.1421 9.63492 82.7699C5.46279 82.3978 3.84375 71.2961 3.84375 71.2961H8.38951Z" fill="#A0616A"/>
<path d="M43.819 70.0623C43.819 70.0623 41.4424 82.8621 45.3999 81.495C49.3574 80.1278 48.2295 68.9661 48.2295 68.9661L43.819 70.0623Z" fill="#A0616A"/>
<path d="M28.0662 16.7801C28.0662 16.7801 28.004 22.7341 30.308 23.0442C32.612 23.3543 29.0003 26.5173 29.0003 26.5173L24.8904 27.3236L18.9747 26.8895L16.3594 23.5403C16.3594 23.5403 20.9674 21.3696 18.9747 14.6094L28.0662 16.7801Z" fill="#A0616A"/>
<path opacity="0.1" d="M28.0662 16.7801C28.0662 16.7801 28.004 22.7341 30.308 23.0442C32.612 23.3543 29.0003 26.5173 29.0003 26.5173L24.8904 27.3236L18.9747 26.8895L16.3594 23.5403C16.3594 23.5403 20.9674 21.3696 18.9747 14.6094L28.0662 16.7801Z" fill="black"/>
<path d="M38.6531 67.141C38.6531 67.141 41.5798 73.4051 39.2758 93.0656C39.2758 93.0656 39.9608 100.012 39.4004 101.314C38.8399 102.617 34.2319 120.293 34.2319 120.293C34.2319 120.293 28.3162 121.595 27.5067 117.688C27.5067 117.688 28.3162 112.106 28.2539 111.238C28.1916 110.369 29.5616 100.88 29.5616 100.88L26.7594 82.5221L24.6422 99.0816C24.6422 99.0816 24.6422 103.857 23.9572 104.912C23.2722 105.966 23.9572 127.177 23.9572 127.177C23.9572 127.177 25.8876 130.402 22.9609 130.464C20.0342 130.526 17.4188 130.402 17.1697 128.355C16.9206 126.309 16.7961 124.262 16.1734 123.022C15.5507 121.781 14.7412 107.578 14.928 102.617C15.1148 97.6551 10.8181 72.1647 12.1881 69.4978C13.558 66.8309 38.6531 67.141 38.6531 67.141Z" fill="#2F2E41"/>
<path d="M24.8904 19.0128C29.0174 19.0128 32.3629 15.6807 32.3629 11.5703C32.3629 7.45993 29.0174 4.12781 24.8904 4.12781C20.7635 4.12781 17.418 7.45993 17.418 11.5703C17.418 15.6807 20.7635 19.0128 24.8904 19.0128Z" fill="#A0616A"/>
<path d="M17.4174 23.6645C17.4174 23.6645 21.9632 27.0136 28.5639 24.3467C28.5639 24.3467 30.7433 23.2923 30.5565 21.6798C30.3697 20.0673 35.1023 34.6421 35.1023 34.6421L39.8971 60.0086L39.648 70.366C39.648 70.366 37.5308 69.3117 30.9302 71.6684C24.3295 74.0252 13.5566 69.0016 13.5566 69.0016L13.9303 42.3947L14.3039 26.8896L15.3002 23.4784C15.3002 23.4784 15.7984 22.5481 17.4174 23.6645Z" fill="#F2F2F2"/>
<path d="M28.2715 19.501C28.2715 19.501 29.3715 19.323 30.4301 20.9975C31.4887 22.6721 33.9795 23.7264 33.9795 23.7264C33.9795 23.7264 40.0198 24.0986 40.8916 27.3236C41.7634 30.5487 43.9428 34.9522 45.0014 43.0769C46.06 51.2016 48.1772 64.1639 48.4886 65.2183C48.7999 66.2726 48.0527 69.4977 48.9245 70.49C49.7963 71.4823 42.7597 71.4823 42.7597 71.4823C42.7597 71.4823 42.137 66.3966 41.7011 66.3966C41.2652 66.3966 41.3897 69.8078 41.8256 72.2886C42.2615 74.7694 38.6498 72.2886 38.6498 72.2886C38.6498 72.2886 35.8476 60.9388 33.17 50.7054C30.4924 40.472 28.9356 34.8281 29.4338 32.5334C29.9319 30.2386 31.3019 23.6644 30.3056 23.0442C29.3092 22.424 28.2715 19.501 28.2715 19.501Z" fill="#2F2E41"/>
<path d="M19.2925 19.4955C19.2925 19.4955 17.6657 20.3773 13.5558 23.2923C9.44591 26.2073 6.64374 28.44 6.64374 28.44C6.64374 28.44 5.0247 29.6804 4.02838 37.0609C3.03205 44.4413 0.790298 63.5437 1.66209 65.9625C2.53388 68.3813 2.84523 69.8078 2.53388 71.2343C2.22253 72.6607 9.0723 72.5987 9.19684 72.2886C9.32138 71.9785 9.01003 66.3346 9.32138 66.2106C9.63273 66.0866 11.314 69.5597 11.6254 72.4747C11.9367 75.3896 15.5484 77.6844 16.358 77.6844C17.1675 77.6844 21.3396 60.8768 21.4019 49.403C21.4642 37.9292 20.0319 28.2539 18.9733 26.8895C17.9147 25.525 19.2925 19.4955 19.2925 19.4955Z" fill="#2F2E41"/>
<path d="M30.2449 120.851C30.2449 120.851 30.7431 119.486 32.4867 119.92C34.2303 120.355 35.4134 118.804 35.4134 118.804C35.4134 118.804 36.3475 118.68 35.7248 119.858C35.102 121.037 34.6039 121.843 34.6039 121.843C34.6039 121.843 38.3401 130.34 35.9116 132.387C33.483 134.433 30.6808 133.193 30.6808 133.193C30.6808 133.193 27.9409 131.27 28.0655 126.185C28.0655 126.185 27.9409 124.572 26.4464 121.967C24.952 119.362 23.8311 115.393 25.6369 114.649C27.4428 113.904 27.9076 113.877 27.9076 113.877C27.9076 113.877 27.0625 117.726 29.2453 119.071L30.2449 120.851Z" fill="#3F3D56"/>
<path d="M18.6609 130.464C18.6609 130.464 17.1664 127.673 19.6573 127.363C22.1481 127.053 24.8257 126.867 24.7012 128.169C24.5766 129.472 24.2653 131.456 24.2653 131.456L24.7012 132.883C24.7012 132.883 24.8257 136.418 25.2616 136.852C25.6975 137.286 28.0638 141.007 23.0199 141.007C17.9759 141.007 16.4815 140.449 16.9173 139.271C17.3532 138.092 17.4778 132.262 17.4778 132.262L18.6609 130.464Z" fill="#3F3D56"/>
<path d="M22.5227 5.61631C22.5227 5.61631 26.0099 6.54662 27.8157 6.91874C29.6216 7.29087 29.4348 6.23651 29.4348 6.23651C29.4348 6.23651 31.801 6.54662 31.6765 6.29854C31.552 6.05045 32.6728 4.74802 31.3651 3.25952C30.0575 1.77101 30.4311 0.654657 30.4311 0.654657H29.3102L28.9989 0.220518H27.2553C27.2553 0.220518 25.9476 -0.275647 22.5227 0.220518C19.0978 0.716683 14.4275 0.840723 14.0539 2.88741C13.6803 4.93409 11.7499 7.47693 12.4349 8.65532C13.1198 9.83372 17.0429 14.6713 17.4165 16.718C17.7901 18.7647 19.5347 19.2194 19.4719 17.9377C19.4092 16.656 17.6656 12.1905 19.1601 12.0044C20.6546 11.8184 23.2077 8.03511 22.5227 5.61631Z" fill="#2F2E41"/>
</g>
</svg>
