<svg width="23" height="24" viewBox="0 0 23 24" fill="none" xmlns="http://www.w3.org/2000/svg">
<path d="M11.503 23.3418C17.8161 23.3418 22.9338 18.2992 22.9338 12.0789C22.9338 5.85859 17.8161 0.81604 11.503 0.81604C5.19 0.81604 0.0722656 5.85859 0.0722656 12.0789C0.0722656 18.2992 5.19 23.3418 11.503 23.3418Z" fill="#040404"/>
<path fill-rule="evenodd" clip-rule="evenodd" d="M11.5038 3.73604C6.63866 3.73604 2.86719 7.24755 2.86719 11.9905C2.86719 14.4715 3.89917 16.6151 5.57958 18.0958C5.72081 18.2201 5.80582 18.3944 5.81158 18.581L5.85866 20.0945C5.87356 20.5776 6.37973 20.8916 6.82815 20.6966L8.54244 19.9509C8.68774 19.8878 8.85064 19.8761 9.0039 19.9175C9.79152 20.1309 10.6301 20.2447 11.5039 20.2447C16.369 20.2447 20.1405 16.7332 20.1405 11.9903C20.1405 7.24738 16.369 3.73604 11.5038 3.73604Z" fill="white"/>
<path fill-rule="evenodd" clip-rule="evenodd" d="M6.31662 14.4044L8.85374 10.4385C9.25729 9.80764 10.1215 9.65046 10.7269 10.098L12.7448 11.5892C12.93 11.726 13.1847 11.7252 13.369 11.5873L16.0942 9.54951C16.4578 9.27754 16.9328 9.70636 16.6895 10.0871L14.1525 14.053C13.7488 14.6839 12.8848 14.8411 12.2792 14.3935L10.2613 12.9022C10.0761 12.7655 9.82138 12.7664 9.63713 12.9042L6.91187 14.942C6.54811 15.2138 6.07327 14.7848 6.31662 14.4044Z" fill="#040404"/>
</svg>
