<svg width="335" height="226" viewBox="0 0 335 226" fill="none" xmlns="http://www.w3.org/2000/svg">
<g filter="url(#filter0_ddd)">
<rect width="335" height="226" rx="8" fill="url(#paint0_linear)" fill-opacity="0.75"/>
</g>
<mask id="mask0" mask-type="alpha" maskUnits="userSpaceOnUse" x="0" y="0" width="335" height="226">
<rect width="335" height="226" rx="8" fill="url(#paint1_linear)" fill-opacity="0.75"/>
</mask>
<g mask="url(#mask0)">
<path d="M309.316 72.6995C308.349 86.1004 307.693 99.5188 307.347 112.955C307.242 116.978 307.196 121.171 308.85 124.853C309.999 127.406 311.882 129.545 313.851 131.547C318.738 136.533 324.199 140.924 330.12 144.626C338.106 149.62 348.095 155.179 348.246 164.59C348.351 171.152 343.396 176.514 339.34 181.653C335.284 186.791 339.754 193.853 342.864 199.615C348.91 209.91 353.4 226.6 355 211" stroke="#3F3D56" stroke-width="4" stroke-miterlimit="10"/>
<path d="M294.169 71.9975C294.282 69.5397 295.012 67.1498 296.292 65.0486C297.572 62.9473 299.361 61.2024 301.493 59.9748L304.774 66.4783L304.676 58.6032C307.661 57.7202 310.849 57.8086 313.78 58.8558C316.711 59.9029 319.233 61.8546 320.983 64.4289C322.732 67.0032 323.618 70.0669 323.513 73.1777C323.408 76.2884 322.316 79.2852 320.397 81.7352C318.477 84.1852 315.828 85.9617 312.833 86.8081C309.838 87.6545 306.651 87.527 303.733 86.4441C300.815 85.3611 298.317 83.3788 296.599 80.7832C294.881 78.1877 294.032 75.1133 294.176 72.0041L294.169 71.9975Z" fill="#57B894"/>
<path d="M320.341 171.343C321.88 174.337 324.403 176.711 327.485 178.066C330.567 179.421 334.021 179.675 337.268 178.785C340.515 177.895 343.358 175.916 345.319 173.179C347.28 170.442 348.24 167.114 348.038 163.754C347.837 160.393 346.485 157.204 344.211 154.721C341.937 152.238 338.879 150.613 335.548 150.118C332.218 149.623 328.819 150.288 325.921 152.002C323.023 153.715 320.803 156.374 319.632 159.53L328.82 166.992L318.733 164.656C318.728 166.981 319.28 169.274 320.341 171.343Z" fill="#57B894"/>
<path d="M327.592 142.841C331.192 143.007 334.728 141.843 337.525 139.571C340.322 137.298 342.186 134.076 342.761 130.518C343.336 126.96 342.582 123.315 340.642 120.277C338.703 117.239 335.714 115.02 332.245 114.044L332.323 120.095L329.003 113.532H328.963C327.029 113.428 325.094 113.707 323.268 114.354C321.443 115.001 319.763 116.003 318.327 117.302C316.89 118.601 315.725 120.171 314.897 121.922C314.07 123.674 313.598 125.571 313.507 127.506C313.417 129.44 313.71 131.374 314.37 133.195C315.03 135.016 316.044 136.688 317.353 138.115C318.662 139.542 320.241 140.697 321.998 141.511C323.755 142.326 325.656 142.784 327.592 142.861V142.841Z" fill="#57B894"/>
<path d="M291.958 119.13C294.229 119.238 296.494 118.817 298.575 117.9C300.656 116.983 302.495 115.596 303.948 113.846C305.401 112.097 306.428 110.035 306.947 107.821C307.467 105.607 307.465 103.303 306.942 101.09C306.419 98.8771 305.389 96.8159 303.934 95.0689C302.478 93.3219 300.637 91.937 298.554 91.0232C296.472 90.1094 294.206 89.6918 291.935 89.8033C289.664 89.9148 287.45 90.5523 285.467 91.6657L288.092 98.773L282.757 93.6476C280.621 95.607 279.113 98.155 278.422 100.97C277.732 103.785 277.891 106.742 278.878 109.467C279.866 112.193 281.638 114.564 283.971 116.284C286.305 118.004 289.095 118.994 291.99 119.13H291.958Z" fill="#57B894"/>
<path opacity="0.1" d="M296.138 75.9091C299.531 76.2766 302.825 77.3331 306.224 77.5431C309.624 77.7532 313.358 76.9394 315.504 74.2946C316.666 72.8706 317.243 71.0724 318.221 69.517C319.151 68.074 320.419 66.88 321.916 66.0388C322.861 67.8996 323.399 69.9406 323.494 72.0257C323.588 74.1108 323.237 76.192 322.463 78.1306C321.69 80.0692 320.512 81.8206 319.008 83.2678C317.504 84.7151 315.708 85.8251 313.742 86.5237C311.775 87.2223 309.682 87.4934 307.602 87.3191C305.522 87.1447 303.503 86.5288 301.68 85.5125C299.857 84.4961 298.271 83.1028 297.029 81.4253C295.787 79.7478 294.917 77.8247 294.477 75.7844C295.035 75.8041 295.586 75.8434 296.138 75.9091Z" fill="black"/>
<path opacity="0.1" d="M291.957 119.13C294.487 119.248 297.004 118.709 299.264 117.566C301.525 116.424 303.451 114.716 304.856 112.61C306.262 110.503 307.098 108.068 307.285 105.543C307.472 103.017 307.003 100.486 305.923 98.1956C304.754 98.9769 303.751 99.9803 302.97 101.149C301.926 102.724 301.29 104.548 300.062 105.999C297.779 108.689 293.867 109.569 290.323 109.405C286.78 109.241 283.367 108.236 279.823 107.915C279.331 107.869 278.839 107.836 278.34 107.823C279.071 110.933 280.795 113.719 283.253 115.76C285.71 117.8 288.767 118.984 291.957 119.13Z" fill="black"/>
<path opacity="0.1" d="M327.591 142.841C330.096 142.958 332.589 142.431 334.832 141.312C337.076 140.192 338.996 138.516 340.408 136.444C341.82 134.371 342.678 131.972 342.899 129.474C343.121 126.976 342.699 124.464 341.674 122.175C340.464 122.97 339.411 123.982 338.57 125.161C337.428 126.769 336.72 128.62 335.381 130.109C332.907 132.866 328.746 133.837 324.992 133.752C321.356 133.666 317.858 132.78 314.242 132.498C315.131 135.387 316.891 137.931 319.28 139.782C321.669 141.633 324.572 142.701 327.591 142.841Z" fill="black"/>
<path opacity="0.1" d="M320.341 171.343C322.056 174.688 324.989 177.248 328.535 178.495C332.081 179.742 335.971 179.581 339.402 178.046C342.833 176.51 345.545 173.717 346.978 170.241C348.411 166.766 348.456 162.873 347.104 159.366C345.893 160.159 344.807 161.128 343.881 162.24C342.484 163.94 341.565 165.869 339.944 167.451C336.945 170.398 332.101 171.612 327.79 171.73C325.302 171.743 322.815 171.614 320.341 171.343Z" fill="black"/>
</g>
<mask id="mask1" mask-type="alpha" maskUnits="userSpaceOnUse" x="0" y="0" width="335" height="226">
<rect width="335" height="226" rx="8" fill="url(#paint2_linear)" fill-opacity="0.75"/>
</mask>
<g mask="url(#mask1)">
<path d="M90.3716 109.219C93.8582 103.298 100.756 103.022 100.756 103.022C100.756 103.022 107.478 102.159 111.79 111.175C115.809 119.58 121.356 127.694 112.683 129.662L111.117 124.762L110.146 130.027C108.912 130.116 107.673 130.137 106.435 130.09C97.1474 129.789 88.3018 130.179 88.5866 126.829C88.9653 122.377 87.0167 114.915 90.3716 109.219Z" fill="#2F2E41"/>
<path d="M123.436 140.829L126.486 148.594L141.735 162.775C141.735 162.775 150.885 169.527 146.818 171.553C142.752 173.578 139.024 164.125 139.024 164.125L122.758 154.334L119.369 143.192L123.436 140.829Z" fill="#FFB8B8"/>
<path d="M118.352 226.923L115.303 234.688H110.897L114.625 225.572L118.352 226.923Z" fill="#FFB8B8"/>
<path d="M105.477 231.649L99.7157 230.299L107.171 200.251L104.696 177.13L104.629 177.123C104.629 177.123 100.393 160.749 103.782 156.36C107.171 151.971 124.115 153.659 124.115 153.659C124.115 153.659 130.553 160.074 130.214 174.591C129.876 189.109 130.214 201.601 127.842 207.341C125.47 213.08 118.693 228.273 118.693 228.273L113.271 227.598L119.032 202.614L119.953 180.896C119.22 189.599 117.744 206.102 116.998 207.341C115.982 209.029 105.477 231.649 105.477 231.649Z" fill="#2F2E41"/>
<path d="M88.1921 147.919L85.82 156.359L75.3148 175.266C75.3148 175.266 66.1652 183.369 69.8928 184.382C73.6205 185.395 79.3813 176.954 79.3813 176.954L91.242 160.411L94.2919 148.257L88.1921 147.919Z" fill="#FFB8B8"/>
<path d="M100.392 123.948C95.7133 123.948 91.9203 120.169 91.9203 115.507C91.9203 110.846 95.7133 107.067 100.392 107.067C105.071 107.067 108.864 110.846 108.864 115.507C108.864 120.169 105.071 123.948 100.392 123.948Z" fill="#FFB8B8"/>
<path d="M104.798 119.896L106.831 126.311L110.22 133.739L97.6812 128.675C97.6812 128.675 98.3589 123.273 97.6812 121.922L104.798 119.896Z" fill="#FFB8B8"/>
<path d="M90.2265 133.401L98.0207 126.986L106.831 130.7L106.486 125.222L115.887 128.213L117.337 128.674L119.37 139.141C119.37 139.141 120.725 140.154 122.081 145.893C122.863 149.266 123.999 152.548 125.47 155.684C125.47 155.684 110.898 149.945 103.782 157.71C103.782 157.71 102.765 157.035 103.104 156.022C103.443 155.009 100.054 149.945 100.054 149.945C100.054 149.945 100.054 150.957 98.6984 148.932C97.3429 146.906 96.3263 146.568 96.3263 146.568L90.2265 133.401Z" fill="#FF6584"/>
<path d="M115.302 129.688L116.783 128.499C116.783 128.499 118.013 127.999 119.03 129.688C120.047 131.376 125.13 141.842 125.13 141.842L119.03 144.881L115.302 129.688Z" fill="#FF6584"/>
<path d="M94.9705 133.064L90.2263 133.401C90.2263 133.401 87.5152 134.752 87.5152 136.778C87.5152 138.803 86.8375 149.607 86.8375 149.607L94.2928 151.971L97.3427 142.517L94.9705 133.064Z" fill="#FF6584"/>
<path d="M91.9135 108.648L98.7287 105.06L108.14 106.528L110.087 115.17L105.24 114.983L103.886 111.808V114.931L101.649 114.844L100.351 109.789L99.5399 115.17L91.5889 115.007L91.9135 108.648Z" fill="#2F2E41"/>
<path d="M44.2181 122.518C44.2181 122.518 41.516 121.722 40.9364 122.588C40.3568 123.454 41.7266 129.731 41.7266 129.731L47.6806 130.091L45.6027 124.865L44.2181 122.518Z" fill="#2F2E41"/>
<path d="M23.3888 174.064C23.3888 174.064 28.8063 185.91 24.6342 185.538C20.4621 185.166 18.843 174.064 18.843 174.064H23.3888Z" fill="#A0616A"/>
<path d="M58.8197 172.83C58.8197 172.83 56.4431 185.63 60.4006 184.263C64.3581 182.896 63.2302 171.734 63.2302 171.734L58.8197 172.83Z" fill="#A0616A"/>
<path d="M43.0662 119.548C43.0662 119.548 43.004 125.502 45.308 125.812C47.612 126.122 44.0003 129.285 44.0003 129.285L39.8904 130.091L33.9747 129.657L31.3594 126.308C31.3594 126.308 35.9674 124.137 33.9747 117.377L43.0662 119.548Z" fill="#A0616A"/>
<path opacity="0.1" d="M43.0662 119.548C43.0662 119.548 43.004 125.502 45.308 125.812C47.612 126.122 44.0003 129.285 44.0003 129.285L39.8904 130.091L33.9747 129.657L31.3594 126.308C31.3594 126.308 35.9674 124.137 33.9747 117.377L43.0662 119.548Z" fill="black"/>
<path d="M53.6522 169.909C53.6522 169.909 56.579 176.173 54.275 195.833C54.275 195.833 54.9599 202.78 54.3995 204.082C53.8391 205.385 49.231 223.06 49.231 223.06C49.231 223.06 43.3153 224.363 42.5058 220.456C42.5058 220.456 43.3153 214.874 43.2531 214.005C43.1908 213.137 44.5607 203.648 44.5607 203.648L41.7586 185.29L39.6413 201.849C39.6413 201.849 39.6413 206.625 38.9564 207.679C38.2714 208.734 38.9564 229.945 38.9564 229.945C38.9564 229.945 40.8868 233.17 37.96 233.232C35.0333 233.294 32.418 233.17 32.1689 231.123C31.9198 229.076 31.7952 227.03 31.1725 225.789C30.5498 224.549 29.7403 210.346 29.9271 205.385C30.1139 200.423 25.8173 174.932 27.1872 172.266C28.5572 169.599 53.6522 169.909 53.6522 169.909Z" fill="#2F2E41"/>
<path d="M39.8902 121.781C44.0171 121.781 47.3627 118.449 47.3627 114.338C47.3627 110.228 44.0171 106.896 39.8902 106.896C35.7633 106.896 32.4177 110.228 32.4177 114.338C32.4177 118.449 35.7633 121.781 39.8902 121.781Z" fill="#A0616A"/>
<path d="M32.4182 126.432C32.4182 126.432 36.9639 129.781 43.5646 127.114C43.5646 127.114 45.7441 126.06 45.5573 124.448C45.3704 122.835 50.103 137.41 50.103 137.41L54.8979 162.776L54.6488 173.134C54.6488 173.134 52.5316 172.079 45.9309 174.436C39.3302 176.793 28.5574 171.769 28.5574 171.769L28.931 145.162L29.3046 129.657L30.3009 126.246C30.3009 126.246 30.7991 125.316 32.4182 126.432Z" fill="#F2F2F2"/>
<path d="M43.2722 122.269C43.2722 122.269 44.3722 122.091 45.4308 123.765C46.4894 125.44 48.9803 126.494 48.9803 126.494C48.9803 126.494 55.0205 126.866 55.8923 130.091C56.7641 133.316 58.9436 137.72 60.0022 145.845C61.0608 153.969 63.178 166.932 63.4893 167.986C63.8007 169.04 63.0534 172.265 63.9252 173.258C64.797 174.25 57.7604 174.25 57.7604 174.25C57.7604 174.25 57.1377 169.164 56.7018 169.164C56.2659 169.164 56.3905 172.575 56.8264 175.056C57.2622 177.537 53.6506 175.056 53.6506 175.056C53.6506 175.056 50.8484 163.707 48.1707 153.473C45.4931 143.24 43.9364 137.596 44.4345 135.301C44.9327 133.006 46.3026 126.432 45.3063 125.812C44.31 125.192 43.2722 122.269 43.2722 122.269Z" fill="#2F2E41"/>
<path d="M34.2934 122.263C34.2934 122.263 32.6665 123.145 28.5566 126.06C24.4468 128.975 21.6446 131.208 21.6446 131.208C21.6446 131.208 20.0256 132.448 19.0292 139.829C18.0329 147.209 15.7912 166.311 16.6629 168.73C17.5347 171.149 17.8461 172.575 17.5347 174.002C17.2234 175.428 24.0732 175.366 24.1977 175.056C24.3222 174.746 24.0109 169.102 24.3222 168.978C24.6336 168.854 26.3149 172.327 26.6262 175.242C26.9376 178.157 30.5493 180.452 31.3588 180.452C32.1683 180.452 36.3405 163.645 36.4027 152.171C36.465 140.697 35.0328 131.022 33.9742 129.657C32.9156 128.293 34.2934 122.263 34.2934 122.263Z" fill="#2F2E41"/>
<path d="M45.2449 223.618C45.2449 223.618 45.7431 222.254 47.4867 222.688C49.2303 223.122 50.4134 221.572 50.4134 221.572C50.4134 221.572 51.3475 221.448 50.7248 222.626C50.102 223.805 49.6039 224.611 49.6039 224.611C49.6039 224.611 53.3401 233.108 50.9116 235.154C48.483 237.201 45.6808 235.961 45.6808 235.961C45.6808 235.961 42.9409 234.038 43.0655 228.952C43.0655 228.952 42.9409 227.34 41.4464 224.735C39.952 222.13 38.8311 218.161 40.6369 217.416C42.4428 216.672 42.9076 216.645 42.9076 216.645C42.9076 216.645 42.0625 220.494 44.2453 221.839L45.2449 223.618Z" fill="#3F3D56"/>
<path d="M37.5237 108.384C37.5237 108.384 41.0108 109.314 42.8167 109.687C44.6225 110.059 44.4357 109.004 44.4357 109.004C44.4357 109.004 46.802 109.314 46.6775 109.066C46.5529 108.818 47.6738 107.516 46.3661 106.027C45.0584 104.539 45.4321 103.422 45.4321 103.422H44.3112L43.9998 102.988H42.2563C42.2563 102.988 40.9486 102.492 37.5237 102.988C34.0988 103.485 29.4285 103.609 29.0549 105.655C28.6812 107.702 26.7509 110.245 27.4358 111.423C28.1208 112.602 32.0439 117.439 32.4175 119.486C32.7911 121.533 34.5357 121.987 34.4729 120.706C34.4101 119.424 32.6666 114.958 34.1611 114.772C35.6556 114.586 38.2087 110.803 37.5237 108.384Z" fill="#2F2E41"/>
</g>
<defs>
<filter id="filter0_ddd" x="-20" y="-10" width="375" height="266" filterUnits="userSpaceOnUse" color-interpolation-filters="sRGB">
<feFlood flood-opacity="0" result="BackgroundImageFix"/>
<feColorMatrix in="SourceAlpha" type="matrix" values="0 0 0 0 0 0 0 0 0 0 0 0 0 0 0 0 0 0 127 0" result="hardAlpha"/>
<feOffset/>
<feGaussianBlur stdDeviation="0.5"/>
<feColorMatrix type="matrix" values="0 0 0 0 0 0 0 0 0 0 0 0 0 0 0 0 0 0 0.05 0"/>
<feBlend mode="normal" in2="BackgroundImageFix" result="effect1_dropShadow"/>
<feColorMatrix in="SourceAlpha" type="matrix" values="0 0 0 0 0 0 0 0 0 0 0 0 0 0 0 0 0 0 127 0" result="hardAlpha"/>
<feOffset dy="2"/>
<feGaussianBlur stdDeviation="3"/>
<feColorMatrix type="matrix" values="0 0 0 0 0 0 0 0 0 0 0 0 0 0 0 0 0 0 0.05 0"/>
<feBlend mode="normal" in2="effect1_dropShadow" result="effect2_dropShadow"/>
<feColorMatrix in="SourceAlpha" type="matrix" values="0 0 0 0 0 0 0 0 0 0 0 0 0 0 0 0 0 0 127 0" result="hardAlpha"/>
<feOffset dy="10"/>
<feGaussianBlur stdDeviation="10"/>
<feColorMatrix type="matrix" values="0 0 0 0 0 0 0 0 0 0 0 0 0 0 0 0 0 0 0.05 0"/>
<feBlend mode="normal" in2="effect2_dropShadow" result="effect3_dropShadow"/>
<feBlend mode="normal" in="SourceGraphic" in2="effect3_dropShadow" result="shape"/>
</filter>
<linearGradient id="paint0_linear" x1="0" y1="226" x2="335" y2="226" gradientUnits="userSpaceOnUse">
<stop stop-color="#2699FB"/>
<stop offset="1" stop-color="#117BDB"/>
</linearGradient>
<linearGradient id="paint1_linear" x1="0" y1="226" x2="335" y2="226" gradientUnits="userSpaceOnUse">
<stop stop-color="#2699FB"/>
<stop offset="1" stop-color="#117BDB"/>
</linearGradient>
<linearGradient id="paint2_linear" x1="0" y1="226" x2="335" y2="226" gradientUnits="userSpaceOnUse">
<stop stop-color="#2699FB"/>
<stop offset="1" stop-color="#117BDB"/>
</linearGradient>
</defs>
</svg>
