<svg width="24" height="23" viewBox="0 0 24 23" fill="none" xmlns="http://www.w3.org/2000/svg">
<path d="M11.9405 22.8719C18.2536 22.8719 23.3713 17.8293 23.3713 11.609C23.3713 5.38873 18.2536 0.346176 11.9405 0.346176C5.6275 0.346176 0.509766 5.38873 0.509766 11.609C0.509766 17.8293 5.6275 22.8719 11.9405 22.8719Z" fill="#040404"/>
<path d="M18.3461 7.88695C18.3461 7.82154 18.3443 7.81904 18.2748 7.81971C18.1074 7.82121 17.9419 7.80152 17.7773 7.77699C17.1792 7.68805 15.2393 6.68541 14.911 5.0452C14.9045 5.01317 14.8314 4.6062 14.8322 4.43284C14.8326 4.35525 14.8312 4.35525 14.7537 4.35391C14.7357 4.35375 14.7178 4.35391 14.6998 4.35391C13.9408 4.35391 13.1816 4.35358 12.4225 4.35408C12.2697 4.35425 12.291 4.33523 12.291 4.4864C12.2907 7.73027 12.2907 10.9741 12.2912 14.218C12.2912 14.339 12.2877 14.4598 12.2662 14.5784C12.1517 15.206 11.8253 15.6972 11.2731 16.0329C10.7947 16.3234 10.2753 16.4063 9.72412 16.2989C9.55037 16.2652 9.38729 16.2006 9.22388 16.1367C9.21067 16.1249 9.19746 16.1128 9.18425 16.101C9.12938 16.0558 9.06876 16.0182 9.00999 15.9782C8.30721 15.4986 7.97394 14.833 8.07538 14.0006C8.17834 13.1558 8.67147 12.5826 9.48382 12.2873C9.72615 12.1994 9.98135 12.1628 10.2406 12.1765C10.4074 12.1852 10.5736 12.2062 10.7353 12.2514C10.7913 12.2671 10.8215 12.2476 10.8244 12.1892C10.8252 12.1685 10.8259 12.148 10.8259 12.1275C10.8259 11.5451 10.8039 10.2732 10.8008 10.2703C10.802 10.1026 10.8018 9.93495 10.805 9.76743C10.8059 9.71904 10.7817 9.7107 10.7404 9.70586C10.434 9.66998 10.128 9.66331 9.81997 9.6855C9.3944 9.7162 8.98205 9.80213 8.58121 9.9443C7.94176 10.1709 7.38056 10.5213 6.89606 10.9888C6.47998 11.3904 6.15281 11.8548 5.91301 12.3782C5.68355 12.8791 5.55197 13.4049 5.51573 13.9524C5.49998 14.1898 5.50303 14.4282 5.52521 14.6664C5.55604 14.9956 5.61937 15.3176 5.72098 15.6321C6.0131 16.536 6.54382 17.2773 7.29707 17.8657C7.37361 17.9256 7.44728 17.9911 7.53889 18.0299C7.53889 18.0299 7.53889 18.0299 7.53889 18.03C7.5775 18.0636 7.61578 18.0971 7.65422 18.1308C7.77615 18.2212 7.90671 18.2987 8.0432 18.3651C8.88688 18.7757 9.7756 18.9426 10.7124 18.8298C11.928 18.6836 12.9405 18.1528 13.7378 17.2386C14.4881 16.3781 14.8526 15.3677 14.8593 14.2384C14.8688 12.6229 14.8615 11.0073 14.8627 9.392C14.8627 9.35346 14.8402 9.29856 14.8832 9.27937C14.9171 9.26419 14.9508 9.30824 14.9826 9.32876C15.5929 9.72355 16.2507 10.0092 16.9634 10.1699C17.3782 10.2633 17.7971 10.3201 18.2237 10.3194C18.3583 10.3192 18.3761 10.3126 18.3763 10.1812C18.3766 9.60775 18.346 8.03946 18.3461 7.88695Z" fill="white"/>
</svg>
