<svg width="24" height="23" viewBox="0 0 24 23" fill="none" xmlns="http://www.w3.org/2000/svg">
<path d="M12.1398 22.5257C18.4528 22.5257 23.5705 17.4832 23.5705 11.2629C23.5705 5.04256 18.4528 0 12.1398 0C5.82672 0 0.708984 5.04256 0.708984 11.2629C0.708984 17.4832 5.82672 22.5257 12.1398 22.5257Z" fill="#040404"/>
<path fill-rule="evenodd" clip-rule="evenodd" d="M5.20405 5.35359C6.91758 7.3354 8.88389 9.06155 12.406 9.21697C11.9411 5.67797 16.0504 4.24547 18.145 6.37623C18.9022 6.23172 19.5031 5.92938 20.1144 5.63775C19.8095 6.37138 19.3069 6.90553 18.7079 7.34207C19.3334 7.23516 19.958 7.12724 20.3958 6.83075C20.2102 7.49587 19.402 8.02376 18.8766 8.53508C18.8266 13.7382 15.2918 17.5387 10.3804 17.8524C8.34448 17.9825 6.31451 17.6343 4.81015 16.7729C6.87474 16.7746 8.32867 16.1594 9.48015 15.239C7.75262 14.8245 6.49605 13.9342 5.87918 12.3983C6.26988 12.5308 6.8145 12.4207 7.22962 12.3983C5.88258 11.8649 4.80515 11.0589 4.75391 9.21697C5.14661 9.36956 5.57554 9.48577 6.04791 9.55792C5.1338 8.98455 4.18447 6.71798 5.20405 5.35359Z" fill="white"/>
</svg>
