<svg width="24" height="24" viewBox="0 0 24 24" fill="none" xmlns="http://www.w3.org/2000/svg">
<path d="M11.9327 23.3418C18.2458 23.3418 23.3635 18.2992 23.3635 12.0789C23.3635 5.85859 18.2458 0.81604 11.9327 0.81604C5.61968 0.81604 0.501953 5.85859 0.501953 12.0789C0.501953 18.2992 5.61968 23.3418 11.9327 23.3418Z" fill="#040404"/>
<path d="M19.235 8.46445C19.0597 7.81838 18.5434 7.30946 17.8875 7.13676C16.6989 6.82291 11.933 6.82291 11.933 6.82291C11.933 6.82291 7.16698 6.82291 5.97852 7.13676C5.32264 7.30946 4.80632 7.81838 4.63104 8.46445C4.31251 9.63562 4.3125 12.0789 4.3125 12.0789C4.3125 12.0789 4.31251 14.5224 4.63104 15.6935C4.80632 16.3396 5.32264 16.8485 5.97852 17.0212C7.16715 17.3349 11.933 17.3349 11.933 17.3349C11.933 17.3349 16.6991 17.3349 17.8875 17.0212C18.5434 16.8485 19.0597 16.3396 19.235 15.6935C19.5535 14.5222 19.5535 12.0789 19.5535 12.0789C19.5535 12.0789 19.5535 9.63545 19.235 8.46445ZM10.4089 14.3315V9.82633L14.3685 12.0789L10.4089 14.3315Z" fill="white"/>
</svg>
